<?xml version="1.0" encoding="UTF-8"?>
<svg width="65px" height="65px" viewBox="0 0 65 65" version="1.1" xmlns="http://www.w3.org/2000/svg" xmlns:xlink="http://www.w3.org/1999/xlink">
    <!-- Generator: Sketch 43.1 (39012) - http://www.bohemiancoding.com/sketch -->
    <title>Group</title>
    <desc>Created with Sketch.</desc>
    <defs>
        <circle id="path-1" cx="32.5" cy="32.5" r="32.5"></circle>
    </defs>
    <g id="Page-1" stroke="none" stroke-width="1" fill="none" fill-rule="evenodd">
        <g id="Group">
            <mask id="mask-2" fill="white">
                <use xlink:href="#path-1"></use>
            </mask>
            <use id="Mask" fill="#FFFFFF" xlink:href="#path-1"></use>
            <g mask="url(#mask-2)" id="Shape" fill-rule="nonzero" fill="#B6D6DD">
                <g transform="translate(-2.000000, -1.000000)">
                    <path d="M35,78.36215 C15.681878,78.36215 0,94.04408 0,113.36215 C0,132.68025 15.681876,148.36215 35,148.36215 C54.318124,148.36215 70,132.68025 70,113.36215 C70,94.04408 54.318122,78.36215 35,78.36215 Z M35,0.36215 C53.237242,0.36215 68,15.12496 68,33.36215 C68,41.356691 65.160281,48.685094 60.4375,54.3934 C58.108633,52.26978 54.703076,51.555476 51.75,50.9559 C50.2143,50.644 48.778039,50.3711 47.71875,50.0184 C46.659461,49.6658 46.080179,49.2413 45.90625,48.8934 L44.15625,45.4559 C45.261039,44.333515 46.238483,42.998744 47.0625,41.48715 C49.699355,36.64995 51,30.00797 51,22.42465 C51,18.33663 48.73614,15.02187 45.65625,12.79965 C42.57636,10.57743 38.667966,9.36215 35,9.36215 C31.332034,9.36215 27.42364,10.57743 24.34375,12.79965 C21.26386,15.02187 19,18.33663 19,22.42465 C19,30.00797 20.300645,36.64995 22.9375,41.48715 C23.761517,42.998744 24.738961,44.333515 25.84375,45.4559 L24.09375,48.8934 C23.919821,49.2413 23.340539,49.6658 22.28125,50.0184 C21.221961,50.3711 19.7857,50.644 18.25,50.9559 C15.296924,51.555476 11.891367,52.26978 9.5625,54.3934 C4.839719,48.685094 2,41.356691 2,33.36215 C2,15.12496 16.762758,0.36215 35,0.36215 Z M35,11.36215 C38.221674,11.36215 41.8023,12.47819 44.5,14.42465 C47.1977,16.37111 49,19.06236 49,22.42465 C49,29.77877 47.709515,36.1212 45.3125,40.5184 C42.915485,44.9156 39.560556,47.36215 35,47.36215 C30.439444,47.36215 27.084515,44.9156 24.6875,40.5184 C22.290485,36.1212 21,29.77877 21,22.42465 C21,19.06236 22.8023,16.37111 25.5,14.42465 C28.1977,12.47819 31.778326,11.36215 35,11.36215 Z M27.375,46.8309 C29.523928,48.45672 32.088568,49.36215 35,49.36215 C37.911432,49.36215 40.476072,48.45672 42.625,46.8309 L44.09375,49.79965 C44.666181,50.94455 45.833037,51.50485 47.09375,51.92465 C48.354463,52.34445 49.821992,52.61565 51.34375,52.92465 C54.305621,53.526072 57.377809,54.300363 59.125,55.92465 C53.104243,62.364325 44.519887,66.36215 35,66.36215 C25.480113,66.36215 16.895757,62.364325 10.875,55.92465 C12.622191,54.300363 15.694379,53.526072 18.65625,52.92465 C20.178008,52.61565 21.645537,52.34445 22.90625,51.92465 C24.166963,51.50485 25.333819,50.94455 25.90625,49.79965 L27.375,46.8309 Z"></path>
                </g>
            </g>
        </g>
    </g>
</svg>