<svg xmlns="http://www.w3.org/2000/svg" width="28" height="28" viewBox="0 0 28 28">
  <metadata><?xpacket begin="﻿" id="W5M0MpCehiHzreSzNTczkc9d"?>
<x:xmpmeta xmlns:x="adobe:ns:meta/" x:xmptk="Adobe XMP Core 5.6-c140 79.160451, 2017/05/06-01:08:21        ">
   <rdf:RDF xmlns:rdf="http://www.w3.org/1999/02/22-rdf-syntax-ns#">
      <rdf:Description rdf:about=""/>
   </rdf:RDF>
</x:xmpmeta>
                                                                                                    
                                                                                                    
                                                                                                    
                                                                                                    
                                                                                                    
                                                                                                    
                                                                                                    
                                                                                                    
                                                                                                    
                                                                                                    
                                                                                                    
                                                                                                    
                                                                                                    
                                                                                                    
                                                                                                    
                                                                                                    
                                                                                                    
                                                                                                    
                                                                                                    
                                                                                                    
                           
<?xpacket end="w"?></metadata>
<defs>
    <style>
      .cls-1 {
        fill: #2785fa;
      }

      .cls-2 {
        fill: #2577dc;
      }

      .cls-2, .cls-3 {
        fill-rule: evenodd;
      }

      .cls-3 {
        fill: #fff;
      }
    </style>
  </defs>
  <rect id="_" data-name="#" class="cls-1" x="1" y="1" width="26" height="26" rx="1.5" ry="1.5"/>
  <path id="_2" data-name="#" class="cls-2" d="M24,28H4a4,4,0,0,1-4-4V4A4,4,0,0,1,4,0H24a4,4,0,0,1,4,4V24A4,4,0,0,1,24,28ZM26,3.5A1.5,1.5,0,0,0,24.5,2H3.5A1.5,1.5,0,0,0,2,3.5v21A1.5,1.5,0,0,0,3.5,26h21A1.5,1.5,0,0,0,26,24.5V3.5Z"/>
  <path id="_3" data-name="#" class="cls-3" d="M20.617,10.073l-7,9.529a1.212,1.212,0,0,1-1.714,0L7.334,15.032a1.212,1.212,0,0,1,1.714-1.714L12.631,16.9,18.9,8.359A1.212,1.212,0,1,1,20.617,10.073Z"/>
</svg>
