<svg id="default" xmlns="http://www.w3.org/2000/svg" width="46" height="46" viewBox="0 0 46 46">
  <metadata><?xpacket begin="﻿" id="W5M0MpCehiHzreSzNTczkc9d"?>
<x:xmpmeta xmlns:x="adobe:ns:meta/" x:xmptk="Adobe XMP Core 5.6-c140 79.160451, 2017/05/06-01:08:21        ">
   <rdf:RDF xmlns:rdf="http://www.w3.org/1999/02/22-rdf-syntax-ns#">
      <rdf:Description rdf:about=""/>
   </rdf:RDF>
</x:xmpmeta>
                                                                                                    
                                                                                                    
                                                                                                    
                                                                                                    
                                                                                                    
                                                                                                    
                                                                                                    
                                                                                                    
                                                                                                    
                                                                                                    
                                                                                                    
                                                                                                    
                                                                                                    
                                                                                                    
                                                                                                    
                                                                                                    
                                                                                                    
                                                                                                    
                                                                                                    
                                                                                                    
                           
<?xpacket end="w"?></metadata>
<defs>
    <style>
      .cls-1 {
        fill: #8d9299;
        fill-rule: evenodd;
      }
    </style>
  </defs>
  <path id="Cart" class="cls-1" d="M41.826,13.97L38.418,30.989H13.885L10.346,13.97H41.826m-34.436-12L1.918,1.99C1.161,1.99,1,2.651,1,3.409s0.157,1.447.913,1.447L5.453,5.172l5.615,27.007a2.229,2.229,0,0,0,2.189,1.81H39.051a2.229,2.229,0,0,0,2.189-1.81l3.715-18.555a2.232,2.232,0,0,0-2.189-2.653H9.954L7.944,2.427a0.565,0.565,0,0,0-.555-0.458h0ZM33,38.031a3,3,0,1,0,1.909,5.314A3,3,0,0,0,36,41.031a3,3,0,0,0-3-3h0Zm-14,0a3,3,0,1,0,1.909,5.314,2.942,2.942,0,0,0,.4-0.4A3,3,0,0,0,19,38.031h0Z"/>
</svg>
