<svg id="default" xmlns="http://www.w3.org/2000/svg" width="46" height="46" viewBox="0 0 46 46">
  <metadata><?xpacket begin="﻿" id="W5M0MpCehiHzreSzNTczkc9d"?>
<x:xmpmeta xmlns:x="adobe:ns:meta/" x:xmptk="Adobe XMP Core 5.6-c140 79.160451, 2017/05/06-01:08:21        ">
   <rdf:RDF xmlns:rdf="http://www.w3.org/1999/02/22-rdf-syntax-ns#">
      <rdf:Description rdf:about=""/>
   </rdf:RDF>
</x:xmpmeta>
                                                                                                    
                                                                                                    
                                                                                                    
                                                                                                    
                                                                                                    
                                                                                                    
                                                                                                    
                                                                                                    
                                                                                                    
                                                                                                    
                                                                                                    
                                                                                                    
                                                                                                    
                                                                                                    
                                                                                                    
                                                                                                    
                                                                                                    
                                                                                                    
                                                                                                    
                                                                                                    
                           
<?xpacket end="w"?></metadata>
<defs>
    <style>
      .cls-1 {
        fill: #8d9299;
        fill-rule: evenodd;
      }
    </style>
  </defs>
  <path id="Home" class="cls-1" d="M23,5.3L40,17.581V39.962H31v-15H15v15H6V17.581L23,5.3m0-3.266a2,2,0,0,0-.894.211l-18,13A2,2,0,0,0,3,17.037v24a1.937,1.937,0,0,0,2,1.924H16a1.937,1.937,0,0,0,2-1.924V27.962H28V41.038a1.937,1.937,0,0,0,2,1.924H41a1.937,1.937,0,0,0,2-1.924v-24a2,2,0,0,0-1.105-1.788l-18-13A2,2,0,0,0,23,2.038h0Z"/>
</svg>
